<svg width="30" height="30" viewBox="0 0 30 30" fill="none" xmlns="http://www.w3.org/2000/svg">
<g id="list 1">
<path id="Vector" d="M8.27543 10.2754C8.36251 10.1881 8.46597 10.1189 8.57986 10.0716C8.69376 10.0243 8.81586 10 8.93918 10C9.06249 10 9.18459 10.0243 9.29849 10.0716C9.41239 10.1189 9.51584 10.1881 9.60293 10.2754L14.5642 15.2386L19.5254 10.2754C19.6126 10.1883 19.7161 10.1191 19.83 10.0719C19.9438 10.0248 20.0659 10.0005 20.1892 10.0005C20.3124 10.0005 20.4345 10.0248 20.5484 10.0719C20.6623 10.1191 20.7658 10.1883 20.8529 10.2754C20.9401 10.3626 21.0092 10.4661 21.0564 10.58C21.1036 10.6938 21.1279 10.8159 21.1279 10.9392C21.1279 11.0624 21.1036 11.1845 21.0564 11.2984C21.0092 11.4123 20.9401 11.5158 20.8529 11.6029L15.8898 16.5642L20.8529 21.5254C20.9401 21.6126 21.0092 21.7161 21.0564 21.83C21.1036 21.9438 21.1279 22.0659 21.1279 22.1892C21.1279 22.3124 21.1036 22.4345 21.0564 22.5484C21.0092 22.6623 20.9401 22.7658 20.8529 22.8529C20.7658 22.9401 20.6623 23.0092 20.5484 23.0564C20.4345 23.1036 20.3124 23.1279 20.1892 23.1279C20.0659 23.1279 19.9438 23.1036 19.83 23.0564C19.7161 23.0092 19.6126 22.9401 19.5254 22.8529L14.5642 17.8898L9.60293 22.8529C9.51576 22.9401 9.41228 23.0092 9.29839 23.0564C9.18451 23.1036 9.06245 23.1279 8.93918 23.1279C8.81591 23.1279 8.69384 23.1036 8.57996 23.0564C8.46607 23.0092 8.36259 22.9401 8.27543 22.8529C8.18826 22.7658 8.11912 22.6623 8.07194 22.5484C8.02477 22.4345 8.00049 22.3124 8.00049 22.1892C8.00049 22.0659 8.02477 21.9438 8.07194 21.83C8.11912 21.7161 8.18826 21.6126 8.27543 21.5254L13.2386 16.5642L8.27543 11.6029C8.18812 11.5158 8.11885 11.4124 8.07159 11.2985C8.02433 11.1846 8 11.0625 8 10.9392C8 10.8159 8.02433 10.6938 8.07159 10.5799C8.11885 10.466 8.18812 10.3625 8.27543 10.2754Z" fill="white"/>
</g>
</svg>
