<svg width="24" height="24" viewBox="0 0 24 24" fill="none" xmlns="http://www.w3.org/2000/svg">
<g id="code-slash 1">
<path id="Vector" d="M15.717 2.47052C15.746 2.37636 15.7561 2.27742 15.7468 2.17935C15.7375 2.08128 15.709 1.98599 15.6629 1.89894C15.6168 1.81188 15.554 1.73476 15.4781 1.67198C15.4022 1.60919 15.3147 1.56197 15.2205 1.53302C15.1263 1.50406 15.0274 1.49393 14.9293 1.50321C14.8313 1.51249 14.736 1.541 14.6489 1.5871C14.5619 1.63321 14.4847 1.69601 14.422 1.77192C14.3592 1.84783 14.312 1.93536 14.283 2.02952L8.283 21.5295C8.22452 21.7197 8.24398 21.9253 8.33709 22.1011C8.4302 22.2769 8.58934 22.4085 8.7795 22.467C8.96966 22.5255 9.17527 22.506 9.35108 22.4129C9.5269 22.3198 9.65852 22.1607 9.717 21.9705L15.717 2.47052ZM7.281 6.21902C7.35085 6.28869 7.40626 6.37145 7.44407 6.46257C7.48188 6.55368 7.50134 6.65137 7.50134 6.75002C7.50134 6.84867 7.48188 6.94635 7.44407 7.03747C7.40626 7.12859 7.35085 7.21135 7.281 7.28102L2.5605 12L7.281 16.719C7.42183 16.8598 7.50095 17.0509 7.50095 17.25C7.50095 17.4492 7.42183 17.6402 7.281 17.781C7.14017 17.9218 6.94917 18.001 6.75 18.001C6.55084 18.001 6.35983 17.9218 6.219 17.781L0.969002 12.531C0.899157 12.4613 0.843743 12.3786 0.805933 12.2875C0.768123 12.1963 0.748661 12.0987 0.748661 12C0.748661 11.9014 0.768123 11.8037 0.805933 11.7126C0.843743 11.6214 0.899157 11.5387 0.969002 11.469L6.219 6.21902C6.28867 6.14917 6.37143 6.09376 6.46255 6.05595C6.55367 6.01814 6.65135 5.99868 6.75 5.99868C6.84865 5.99868 6.94633 6.01814 7.03745 6.05595C7.12857 6.09376 7.21133 6.14917 7.281 6.21902ZM16.719 6.21902C16.6492 6.28869 16.5937 6.37145 16.5559 6.46257C16.5181 6.55368 16.4987 6.65137 16.4987 6.75002C16.4987 6.84867 16.5181 6.94635 16.5559 7.03747C16.5937 7.12859 16.6492 7.21135 16.719 7.28102L21.4395 12L16.719 16.719C16.6493 16.7887 16.594 16.8715 16.5562 16.9626C16.5185 17.0538 16.4991 17.1514 16.4991 17.25C16.4991 17.3486 16.5185 17.4463 16.5562 17.5374C16.594 17.6285 16.6493 17.7113 16.719 17.781C16.7887 17.8507 16.8715 17.9061 16.9626 17.9438C17.0537 17.9815 17.1514 18.001 17.25 18.001C17.3486 18.001 17.4463 17.9815 17.5374 17.9438C17.6285 17.9061 17.7113 17.8507 17.781 17.781L23.031 12.531C23.1008 12.4613 23.1563 12.3786 23.1941 12.2875C23.2319 12.1963 23.2513 12.0987 23.2513 12C23.2513 11.9014 23.2319 11.8037 23.1941 11.7126C23.1563 11.6214 23.1008 11.5387 23.031 11.469L17.781 6.21902C17.7113 6.14917 17.6286 6.09376 17.5375 6.05595C17.4463 6.01814 17.3487 5.99868 17.25 5.99868C17.1514 5.99868 17.0537 6.01814 16.9626 6.05595C16.8714 6.09376 16.7887 6.14917 16.719 6.21902Z" fill="white"/>
</g>
</svg>
